<svg width="19" height="19" viewBox="0 0 19 19" fill="none" xmlns="http://www.w3.org/2000/svg">
<g clip-path="url(#clip0_1_9260)">
<path d="M3.88529 11.5844H1.54401M17.798 11.5844H15.4567M3.88529 6.87093H1.54401M17.798 6.87093H15.4567M7.31429 3.44193V1.10065M7.31429 17.3546V15.0134M12.0277 3.44193V1.10065M12.0277 17.3546V15.0134M14.171 3.44193H5.17101C4.83001 3.44193 4.50299 3.57739 4.26187 3.81851C4.02075 4.05963 3.88529 4.38665 3.88529 4.72765V13.7276C3.88529 14.0686 4.02075 14.3957 4.26187 14.6368C4.50299 14.8779 4.83001 15.0134 5.17101 15.0134H14.171C14.512 15.0134 14.839 14.8779 15.0801 14.6368C15.3213 14.3957 15.4567 14.0686 15.4567 13.7276V4.72765C15.4567 4.38665 15.3213 4.05963 15.0801 3.81851C14.839 3.57739 14.512 3.44193 14.171 3.44193Z" stroke="black" stroke-width="1.07143" stroke-linecap="round" stroke-linejoin="round"/>
<path d="M6.67145 9.54906C6.31016 9.48735 6.31016 8.96792 6.67145 8.90492C7.31158 8.79265 7.90391 8.49267 8.37321 8.04306C8.8425 7.59346 9.16758 7.01452 9.30716 6.37978L9.3303 6.27949C9.40745 5.92206 9.91788 5.91949 9.99888 6.27692L10.0246 6.39264C10.1688 7.02526 10.4968 7.60114 10.9674 8.0479C11.4379 8.49466 12.0301 8.79238 12.6693 8.90364C13.0332 8.96664 13.0332 9.48864 12.6693 9.55164C12.0302 9.6628 11.4382 9.96033 10.9677 10.4068C10.4972 10.8534 10.1691 11.429 10.0246 12.0613L9.99888 12.1771C9.91788 12.5345 9.40745 12.5319 9.3303 12.1745L9.30845 12.0755C9.169 11.4403 8.84383 10.861 8.37428 10.4111C7.90472 9.96126 7.31199 9.66119 6.67145 9.54906Z" stroke="black" stroke-width="1.07143" stroke-linecap="round" stroke-linejoin="round"/>
</g>
<defs>
<clipPath id="clip0_1_9260">
<rect width="18" height="18" fill="white" transform="translate(0.671021 0.227661)"/>
</clipPath>
</defs>
</svg>
